# Blender v2.75 (sub 0) OBJ File: 'compass.blend'
# www.blender.org
mtllib compass_needle.mtl
o compass_needle_compass.003
v 0.923880 0.000000 -0.382680
v 1.000000 0.000000 0.000000
v 9.000000 0.000001 0.000000
v 0.382680 0.000000 0.923880
v -0.000000 0.000000 2.000000
v 0.000000 0.000000 -2.000000
v 0.707110 0.000000 -0.707110
v -0.000000 0.000000 1.000000
v -0.707110 -0.000000 0.707110
v -0.923880 -0.000000 0.382680
v -9.000000 -0.000001 -0.000000
v -0.707110 -0.000000 -0.707110
v -1.000000 -0.000000 -0.000000
v -0.923880 -0.000000 -0.382680
v -0.191340 0.500000 0.461940
v -0.353550 0.500000 0.353550
v -0.461940 0.500000 0.191340
v -0.500000 0.500000 -0.000000
v -0.461940 0.500000 -0.191340
v -0.353550 0.500000 -0.353550
v -0.191340 0.500000 -0.461940
v -0.000000 0.500000 -0.500000
v 0.191340 0.500000 -0.461940
v 0.353550 0.500000 -0.353550
v 0.461940 0.500000 -0.191340
v -0.000000 1.000000 -0.000000
v 0.500000 0.500000 0.000000
v 0.461940 0.500000 0.191340
v 0.353550 0.500000 0.353550
v 0.191340 0.500000 0.461940
v -0.000000 0.500000 0.500000
v -0.382680 -0.000000 0.923880
v -0.382680 -0.000000 -0.923880
v 0.000000 -0.000000 -1.000000
v 0.382680 0.000000 -0.923880
v 0.707110 0.000000 0.707110
v 0.923880 0.000000 0.382680
vt 0.546117 0.574251
vt 0.554893 0.493866
vt 0.992286 0.883076
vt 0.532125 0.261194
vt 0.524185 0.007714
vt 0.475814 0.883077
vt 0.530180 0.634507
vt 0.512097 0.226046
vt 0.469819 0.256284
vt 0.453882 0.316540
vt 0.007714 0.007714
vt 0.445106 0.396925
vt 0.444578 0.484677
vt 0.452676 0.566388
vt 0.517912 0.495451
vt 0.511855 0.519666
vt 0.500000 0.445395
vt 0.495255 0.531420
vt 0.487903 0.664745
vt 0.467874 0.629597
vt 0.487490 0.517027
vt 0.518568 0.397959
vt 0.547324 0.324402
vt 0.555422 0.406114
vt 0.521516 0.430128
vt 0.503814 0.531429
vt 0.509779 0.666738
vt 0.490220 0.224052
vt 0.496186 0.359361
vt 0.504745 0.359371
vt 0.488145 0.371125
vt 0.482087 0.395339
vt 0.478482 0.426407
vt 0.478483 0.460663
vt 0.481432 0.492832
vt 0.521518 0.464384
vt 0.512509 0.373763
vn -0.000000 1.000000 0.000000
vn -0.044300 0.997600 -0.053900
vn 0.653300 0.707100 -0.270600
vn 0.500000 0.707100 -0.500000
vn -0.000000 0.707100 -0.707100
vn -0.270600 0.707100 -0.653300
vn 0.500000 0.707100 0.500000
vn 0.653300 0.707100 0.270600
vn 0.270600 0.707100 -0.653300
vn -0.270600 0.707100 0.653300
vn -0.000000 0.802400 0.596800
vn 0.000000 0.707100 0.707100
vn -0.500000 0.707100 0.500000
vn -0.653300 0.707100 0.270600
vn -0.707100 0.707100 0.000000
vn -0.653300 0.707100 -0.270600
vn -0.500000 0.707100 -0.500000
vn 0.707100 0.707100 0.000000
vn 0.270600 0.707100 0.653300
vn 0.055800 0.670900 0.739400
usemtl None
s 1
f 1/1/1 2/2/1 3/3/1
f 4/4/1 5/5/1 3/3/1
f 3/3/1 6/6/1 7/7/1
f 1/1/1 3/3/1 7/7/1
f 4/4/1 8/8/2 5/5/1
f 9/9/1 10/10/1 11/11/1
f 11/11/1 5/5/1 9/9/1
f 11/11/1 13/12/1 14/13/1
f 10/10/1 13/12/1 11/11/1
f 12/14/1 11/11/1 14/13/1
f 25/15/3 24/16/4 26/17/4
f 22/18/5 34/19/5 33/20/6 21/21/6
f 29/22/7 36/23/7 37/24/8 28/25/8
f 23/26/9 35/27/9 34/19/5 22/18/5
f 37/24/1 3/3/1 2/2/1
f 3/3/1 37/24/1 36/23/1
f 3/3/1 36/23/1 4/4/1
f 6/6/1 34/19/1 35/27/1
f 33/20/1 34/19/1 6/6/1
f 7/7/1 6/6/1 35/27/1
f 32/28/1 5/5/1 8/8/2
f 5/5/1 32/28/1 9/9/1
f 11/11/1 12/14/1 33/20/1
f 6/6/1 11/11/1 33/20/1
f 15/29/10 31/30/11 26/17/12
f 16/31/13 15/29/10 26/17/10
f 17/32/14 16/31/13 26/17/13
f 18/33/15 17/32/14 26/17/14
f 19/34/16 18/33/15 26/17/15
f 20/35/17 19/34/16 26/17/16
f 21/21/6 20/35/17 26/17/17
f 22/18/5 21/21/6 26/17/6
f 23/26/9 22/18/5 26/17/5
f 24/16/4 23/26/9 26/17/9
f 27/36/18 25/15/3 26/17/3
f 28/25/8 27/36/18 26/17/18
f 29/22/7 28/25/8 26/17/8
f 30/37/19 29/22/7 26/17/7
f 31/30/11 30/37/19 26/17/19
f 15/29/10 32/28/10 8/8/20 31/30/11
f 17/32/14 10/10/14 9/9/13 16/31/13
f 16/31/13 9/9/13 32/28/10 15/29/10
f 19/34/16 14/13/16 13/12/15 18/33/15
f 21/21/6 33/20/6 12/14/17 20/35/17
f 20/35/17 12/14/17 14/13/16 19/34/16
f 18/33/15 13/12/15 10/10/14 17/32/14
f 24/16/4 7/7/4 35/27/9 23/26/9
f 27/36/18 2/2/18 1/1/3 25/15/3
f 25/15/3 1/1/3 7/7/4 24/16/4
f 31/30/11 8/8/20 4/4/19 30/37/19
f 30/37/19 4/4/19 36/23/7 29/22/7
f 28/25/8 37/24/8 2/2/18 27/36/18
