# Blender v2.75 (sub 0) OBJ File: 'compass.blend'
# www.blender.org
mtllib compass_glass.mtl
o compass_glass_compass.001
v -2.515600 1.687000 -5.018700
v -2.515600 1.374700 -7.512500
v -5.024900 1.188900 -7.484500
v -5.024900 1.500000 -5.000000
v 0.000000 1.749400 -5.024900
v 0.000000 1.436700 -7.521800
v 2.515600 1.687000 -5.018700
v 2.515600 1.374700 -7.512500
v 5.024900 1.500000 -5.000000
v 5.024900 1.188900 -7.484500
v -5.024900 1.687000 -2.503100
v -7.521800 1.188900 -4.968900
v -7.521800 1.374700 -2.487500
v -2.515600 1.874700 -2.512500
v 0.000000 1.937300 -2.515600
v 2.515600 1.874700 -2.512500
v 5.024900 1.687000 -2.503100
v 7.521800 1.374700 -2.487500
v 7.521800 1.188900 -4.968900
v -5.024900 1.749400 -0.000000
v -7.521800 1.436700 -0.000000
v -2.515600 1.937300 -0.000000
v -0.000000 2.000000 0.000000
v 2.515600 1.937300 0.000000
v 5.024900 1.749400 0.000000
v 7.521800 1.436700 0.000000
v -5.024900 1.687000 2.503100
v -7.521800 1.374700 2.487500
v -2.515600 1.874700 2.512500
v -0.000000 1.937300 2.515600
v 2.515600 1.874700 2.512500
v 5.024900 1.687000 2.503100
v 7.521800 1.374700 2.487500
v -5.024900 1.500000 5.000000
v -7.521800 1.188900 4.968900
v -2.515600 1.687000 5.018700
v -0.000000 1.749400 5.024900
v 2.515600 1.687000 5.018700
v 5.024900 1.500000 5.000000
v 7.521800 1.188900 4.968900
v -2.515600 1.374700 7.512500
v -5.024900 1.188900 7.484500
v -0.000000 1.436700 7.521800
v 2.515600 1.374700 7.512500
v 5.024900 1.188900 7.484500
v -3.852200 1.000000 -9.228200
v -4.739100 1.000000 -8.805600
v -5.581800 1.000000 -8.297000
v -6.373200 1.000000 -7.705900
v -7.106400 1.000000 -7.035500
v -0.994680 1.000000 -9.950400
v 0.000000 1.000000 -10.000000
v -1.973000 1.000000 -9.803400
v -2.927900 1.000000 -9.561800
v -9.254900 1.000000 -3.787800
v -8.844400 1.000000 -4.666500
v -9.952400 1.000000 -0.975660
v -9.810900 0.999990 -1.936200
v -7.768300 1.000000 -6.297200
v -8.348300 1.000000 -5.505300
v 1.973200 1.000000 -9.803400
v 0.994760 1.000000 -9.950400
v 2.928100 1.000000 -9.561700
v 3.852500 1.000000 -9.228100
v 4.739500 1.000000 -8.805400
v 6.373700 1.000000 -7.705500
v 5.582200 1.000000 -8.296700
v 7.106900 1.000000 -7.035100
v 7.768600 1.000000 -6.296800
v 8.348500 1.000000 -5.504900
v 9.255000 1.000000 -3.787500
v 8.844600 1.000000 -4.666200
v 9.811000 0.999990 -1.936100
v 9.952400 1.000000 -0.975580
v 10.000000 1.000000 -0.000000
v -10.000000 1.000000 -0.000000
v -9.811000 0.999990 1.936100
v -9.952400 1.000000 0.975580
v -8.844600 1.000000 4.666200
v -9.255000 1.000000 3.787500
v -8.348500 1.000000 5.504900
v -7.106900 1.000000 7.035100
v -7.768600 1.000000 6.296800
v -6.373700 1.000000 7.705500
v -5.582200 1.000000 8.296700
v -4.739500 1.000000 8.805400
v -3.852500 1.000000 9.228100
v -0.994760 1.000000 9.950400
v -2.928100 1.000000 9.561700
v -1.973200 1.000000 9.803400
v -0.000000 1.000000 10.000000
v 9.952400 1.000000 0.975660
v 7.768300 1.000000 6.297200
v 7.106400 1.000000 7.035500
v 9.254900 1.000000 3.787800
v 8.348300 1.000000 5.505300
v 9.810900 0.999990 1.936200
v 8.844400 1.000000 4.666500
v 3.852200 1.000000 9.228200
v 2.927900 1.000000 9.561800
v 1.973000 1.000000 9.803400
v 0.994680 1.000000 9.950400
v 6.373200 1.000000 7.705900
v 5.581800 1.000000 8.297000
v 4.739100 1.000000 8.805600
vt 0.450528 0.770167
vt 0.485512 0.888020
vt 0.367120 0.922839
vt 0.332546 0.805079
vt 0.568259 0.734957
vt 0.603630 0.852824
vt 0.685924 0.699526
vt 0.721610 0.817167
vt 0.803634 0.663707
vt 0.839612 0.781045
vt 0.297772 0.687688
vt 0.214178 0.839788
vt 0.179731 0.722699
vt 0.415475 0.652624
vt 0.532981 0.617401
vt 0.650464 0.582105
vt 0.768024 0.546566
vt 0.885839 0.510798
vt 0.921554 0.627506
vt 0.262746 0.570524
vt 0.144922 0.605883
vt 0.380308 0.535244
vt 0.497749 0.500000
vt 0.615190 0.464756
vt 0.732752 0.429476
vt 0.850576 0.394117
vt 0.227474 0.453434
vt 0.109659 0.489202
vt 0.345034 0.417895
vt 0.462517 0.382599
vt 0.580023 0.347376
vt 0.697725 0.312312
vt 0.815767 0.277301
vt 0.191864 0.336293
vt 0.073944 0.372494
vt 0.309574 0.300474
vt 0.427239 0.265043
vt 0.544970 0.229833
vt 0.662952 0.194920
vt 0.781320 0.160212
vt 0.273887 0.182833
vt 0.155886 0.218955
vt 0.391867 0.147176
vt 0.509985 0.111980
vt 0.628377 0.077161
vt 0.446788 0.989221
vt 0.399043 0.981817
vt 0.352139 0.969785
vt 0.306479 0.953135
vt 0.262424 0.931972
vt 0.591588 0.982884
vt 0.639138 0.971144
vt 0.543434 0.989735
vt 0.495043 0.991845
vt 0.115263 0.809310
vt 0.147057 0.844867
vt 0.042608 0.686681
vt 0.062884 0.729894
vt 0.220823 0.906499
vt 0.182292 0.877379
vt 0.729275 0.933965
vt 0.685299 0.954762
vt 0.770829 0.909078
vt 0.809671 0.880315
vt 0.845454 0.847840
vt 0.906932 0.772919
vt 0.877981 0.811966
vt 0.932055 0.730997
vt 0.952747 0.686830
vt 0.968873 0.641307
vt 0.987343 0.547585
vt 0.980386 0.594771
vt 0.987343 0.452460
vt 0.980471 0.405226
vt 0.968906 0.358607
vt 0.026592 0.641393
vt 0.008155 0.547540
vt 0.015027 0.594773
vt 0.015112 0.405229
vt 0.008155 0.452415
vt 0.026625 0.358693
vt 0.063443 0.269003
vt 0.042751 0.313170
vt 0.088566 0.227081
vt 0.117517 0.188035
vt 0.150044 0.152160
vt 0.185827 0.119685
vt 0.310199 0.045238
vt 0.224668 0.090923
vt 0.266223 0.066035
vt 0.356360 0.028856
vt 0.952890 0.313319
vt 0.774675 0.093501
vt 0.733074 0.068028
vt 0.880235 0.190690
vt 0.813206 0.122621
vt 0.932614 0.270106
vt 0.848441 0.155133
vt 0.548710 0.010779
vt 0.500454 0.008155
vt 0.452064 0.010265
vt 0.403910 0.017116
vt 0.689019 0.046865
vt 0.643358 0.030215
vt 0.596455 0.018183
vn -0.049800 0.993800 -0.099400
vn -0.049800 0.987600 -0.148700
vn -0.099500 0.983900 -0.148200
vn -0.099400 0.990100 -0.099000
vn -0.000000 0.995000 -0.099500
vn -0.000000 0.988800 -0.149000
vn 0.049800 0.993800 -0.099400
vn 0.049800 0.987600 -0.148800
vn 0.099400 0.990100 -0.099000
vn 0.099500 0.983900 -0.148200
vn -0.099500 0.993800 -0.049600
vn -0.148900 0.983900 -0.098400
vn -0.149000 0.987600 -0.049300
vn -0.049800 0.997500 -0.049800
vn 0.000000 0.998800 -0.049800
vn 0.049800 0.997500 -0.049800
vn 0.099500 0.993800 -0.049600
vn 0.149000 0.987600 -0.049300
vn 0.148900 0.983900 -0.098400
vn -0.099500 0.995000 0.000000
vn -0.149000 0.988800 0.000000
vn -0.049800 0.998800 0.000000
vn 0.000000 1.000000 0.000000
vn 0.049800 0.998800 0.000000
vn 0.099500 0.995000 0.000000
vn 0.149000 0.988800 0.000000
vn -0.099500 0.993800 0.049600
vn -0.149000 0.987600 0.049300
vn -0.049800 0.997500 0.049800
vn 0.000000 0.998800 0.049800
vn 0.049800 0.997500 0.049800
vn 0.099500 0.993800 0.049600
vn 0.149000 0.987600 0.049300
vn -0.099400 0.990100 0.099000
vn -0.148900 0.983900 0.098400
vn -0.049800 0.993800 0.099400
vn -0.000000 0.995000 0.099500
vn 0.049800 0.993800 0.099400
vn 0.099400 0.990100 0.099000
vn 0.148900 0.983900 0.098400
vn -0.049800 0.987600 0.148800
vn -0.099500 0.983900 0.148200
vn 0.000000 0.988800 0.149000
vn 0.049800 0.987600 0.148700
vn 0.099500 0.983900 0.148200
vn -0.076300 0.980200 -0.182700
vn -0.093800 0.980200 -0.174400
vn -0.110500 0.980200 -0.164300
vn -0.126200 0.980200 -0.152600
vn -0.140700 0.980200 -0.139300
vn -0.019700 0.980200 -0.197100
vn 0.000000 0.980200 -0.198000
vn -0.039100 0.980200 -0.194100
vn -0.058000 0.980200 -0.189300
vn -0.183300 0.980200 -0.075000
vn -0.175100 0.980200 -0.092400
vn -0.197100 0.980200 -0.019300
vn -0.194200 0.980200 -0.038300
vn -0.153800 0.980200 -0.124700
vn -0.165300 0.980200 -0.109000
vn 0.039100 0.980200 -0.194100
vn 0.019700 0.980200 -0.197100
vn 0.058000 0.980200 -0.189300
vn 0.076300 0.980200 -0.182700
vn 0.093900 0.980200 -0.174400
vn 0.126200 0.980200 -0.152600
vn 0.110500 0.980200 -0.164300
vn 0.140700 0.980200 -0.139300
vn 0.153800 0.980200 -0.124700
vn 0.165300 0.980200 -0.109000
vn 0.183300 0.980200 -0.075000
vn 0.175100 0.980200 -0.092400
vn 0.194300 0.980200 -0.038300
vn 0.197100 0.980200 -0.019300
vn 0.198000 0.980200 0.000000
vn -0.198000 0.980200 -0.000000
vn -0.194300 0.980200 0.038300
vn -0.197100 0.980200 0.019300
vn -0.175100 0.980200 0.092400
vn -0.183300 0.980200 0.075000
vn -0.165300 0.980200 0.109000
vn -0.140700 0.980200 0.139300
vn -0.153800 0.980200 0.124700
vn -0.126200 0.980200 0.152600
vn -0.110500 0.980200 0.164300
vn -0.093900 0.980200 0.174400
vn -0.076300 0.980200 0.182700
vn -0.019700 0.980200 0.197100
vn -0.058000 0.980200 0.189300
vn -0.039100 0.980200 0.194100
vn -0.000000 0.980200 0.198000
vn 0.197100 0.980200 0.019300
vn 0.153800 0.980200 0.124700
vn 0.140700 0.980200 0.139300
vn 0.183300 0.980200 0.075000
vn 0.165300 0.980200 0.109000
vn 0.194200 0.980200 0.038300
vn 0.175100 0.980200 0.092400
vn 0.076300 0.980200 0.182700
vn 0.058000 0.980200 0.189300
vn 0.039100 0.980200 0.194100
vn 0.019700 0.980200 0.197100
vn 0.126200 0.980200 0.152600
vn 0.110500 0.980200 0.164300
vn 0.093800 0.980200 0.174400
usemtl None
s 1
f 1/1/1 2/2/2 3/3/3 4/4/4
f 5/5/5 6/6/6 2/2/2 1/1/1
f 7/7/7 8/8/8 6/6/6 5/5/5
f 9/9/9 10/10/10 8/8/8 7/7/7
f 11/11/11 4/4/4 12/12/12 13/13/13
f 14/14/14 1/1/1 4/4/4 11/11/11
f 15/15/15 5/5/5 1/1/1 14/14/14
f 16/16/16 7/7/7 5/5/5 15/15/15
f 17/17/17 9/9/9 7/7/7 16/16/16
f 18/18/18 19/19/19 9/9/9 17/17/17
f 20/20/20 11/11/11 13/13/13 21/21/21
f 22/22/22 14/14/14 11/11/11 20/20/20
f 23/23/23 15/15/15 14/14/14 22/22/22
f 24/24/24 16/16/16 15/15/15 23/23/23
f 25/25/25 17/17/17 16/16/16 24/24/24
f 26/26/26 18/18/18 17/17/17 25/25/25
f 27/27/27 20/20/20 21/21/21 28/28/28
f 29/29/29 22/22/22 20/20/20 27/27/27
f 30/30/30 23/23/23 22/22/22 29/29/29
f 31/31/31 24/24/24 23/23/23 30/30/30
f 32/32/32 25/25/25 24/24/24 31/31/31
f 33/33/33 26/26/26 25/25/25 32/32/32
f 34/34/34 27/27/27 28/28/28 35/35/35
f 36/36/36 29/29/29 27/27/27 34/34/34
f 37/37/37 30/30/30 29/29/29 36/36/36
f 38/38/38 31/31/31 30/30/30 37/37/37
f 39/39/39 32/32/32 31/31/31 38/38/38
f 40/40/40 33/33/33 32/32/32 39/39/39
f 41/41/41 36/36/36 34/34/34 42/42/42
f 43/43/43 37/37/37 36/36/36 41/41/41
f 44/44/44 38/38/38 37/37/37 43/43/43
f 45/45/45 39/39/39 38/38/38 44/44/44
f 3/3/3 46/46/46 47/47/47
f 3/3/3 48/48/48 49/49/49
f 50/50/50 3/3/3 49/49/49
f 47/47/47 48/48/48 3/3/3
f 2/2/2 46/46/46 3/3/3
f 51/51/51 6/6/6 52/52/52
f 2/2/2 53/53/53 54/54/54
f 46/46/46 2/2/2 54/54/54
f 51/51/51 53/53/53 2/2/2
f 2/2/2 6/6/6 51/51/51
f 55/55/55 12/12/12 56/56/56
f 57/57/57 13/13/13 58/58/58
f 13/13/13 55/55/55 58/58/58
f 57/57/57 21/21/21 13/13/13
f 59/59/59 12/12/12 50/50/50
f 60/60/60 12/12/12 59/59/59
f 56/56/56 12/12/12 60/60/60
f 50/50/50 12/12/12 4/4/4
f 12/12/12 55/55/55 13/13/13
f 3/3/3 50/50/50 4/4/4
f 8/8/8 61/61/61 62/62/62
f 63/63/63 61/61/61 8/8/8
f 6/6/6 8/8/8 62/62/62
f 64/64/64 63/63/63 8/8/8
f 6/6/6 62/62/62 52/52/52
f 10/10/10 65/65/65 64/64/64
f 66/66/66 67/67/67 10/10/10
f 65/65/65 10/10/10 67/67/67
f 68/68/68 66/66/66 10/10/10
f 10/10/10 64/64/64 8/8/8
f 19/19/19 69/69/69 68/68/68
f 70/70/70 69/69/69 19/19/19
f 68/68/68 9/9/9 19/19/19
f 9/9/9 68/68/68 10/10/10
f 18/18/18 71/71/71 19/19/19
f 70/70/70 19/19/19 72/72/72
f 72/72/72 19/19/19 71/71/71
f 18/18/18 73/73/73 71/71/71
f 73/73/73 18/18/18 74/74/74
f 75/75/75 74/74/74 26/26/26
f 26/26/26 74/74/74 18/18/18
f 57/57/57 76/76/76 21/21/21
f 77/77/77 28/28/28 78/78/78
f 79/79/79 35/35/35 80/80/80
f 28/28/28 77/77/77 80/80/80
f 35/35/35 79/79/79 81/81/81
f 28/28/28 21/21/21 78/78/78
f 82/82/82 34/34/34 35/35/35
f 80/80/80 35/35/35 28/28/28
f 83/83/83 82/82/82 35/35/35
f 81/81/81 83/83/83 35/35/35
f 76/76/76 78/78/78 21/21/21
f 84/84/84 42/42/42 82/82/82
f 42/42/42 85/85/85 86/86/86
f 84/84/84 85/85/85 42/42/42
f 87/87/87 42/42/42 86/86/86
f 88/88/88 43/43/43 41/41/41
f 42/42/42 87/87/87 41/41/41
f 87/87/87 89/89/89 41/41/41
f 41/41/41 90/90/90 88/88/88
f 89/89/89 90/90/90 41/41/41
f 91/91/91 43/43/43 88/88/88
f 42/42/42 34/34/34 82/82/82
f 33/33/33 92/92/92 26/26/26
f 93/93/93 40/40/40 94/94/94
f 39/39/39 94/94/94 40/40/40
f 95/95/95 33/33/33 40/40/40
f 40/40/40 93/93/93 96/96/96
f 97/97/97 92/92/92 33/33/33
f 95/95/95 40/40/40 98/98/98
f 33/33/33 95/95/95 97/97/97
f 96/96/96 98/98/98 40/40/40
f 75/75/75 26/26/26 92/92/92
f 99/99/99 44/44/44 100/100/100
f 101/101/101 100/100/100 44/44/44
f 101/101/101 44/44/44 102/102/102
f 102/102/102 44/44/44 43/43/43
f 103/103/103 94/94/94 45/45/45
f 45/45/45 94/94/94 39/39/39
f 104/104/104 103/103/103 45/45/45
f 104/104/104 45/45/45 105/105/105
f 99/99/99 105/105/105 45/45/45
f 99/99/99 45/45/45 44/44/44
f 43/43/43 91/91/91 102/102/102
